<svg width="163" height="64" viewBox="0 0 163 64" fill="none" xmlns="http://www.w3.org/2000/svg">
<path d="M5.53533 60.2045C7.42738 60.2045 8.06658 59.0284 8.39897 58.4915H8.57795V60H10.0353V46.9091H8.52681V51.7415H8.39897C8.06658 51.2301 7.47852 50.054 5.5609 50.054C3.08079 50.054 1.36772 52.0227 1.36772 55.1165C1.36772 58.2358 3.08079 60.2045 5.53533 60.2045ZM5.73988 58.8494C3.84783 58.8494 2.87624 57.1875 2.87624 55.0909C2.87624 53.0199 3.82227 51.4091 5.73988 51.4091C7.58079 51.4091 8.55238 52.892 8.55238 55.0909C8.55238 57.3153 7.55522 58.8494 5.73988 58.8494ZM13.0076 60H14.5162V50.1818H13.0076V60ZM13.7747 48.5455C14.3627 48.5455 14.8485 48.0852 14.8485 47.5227C14.8485 46.9602 14.3627 46.5 13.7747 46.5C13.1866 46.5 12.7008 46.9602 12.7008 47.5227C12.7008 48.0852 13.1866 48.5455 13.7747 48.5455ZM24.2337 52.3807C23.7607 50.9872 22.6996 50.054 20.7564 50.054C18.6854 50.054 17.1513 51.2301 17.1513 52.892C17.1513 54.2472 17.9567 55.1548 19.7592 55.5767L21.3956 55.9602C22.3864 56.1903 22.853 56.6634 22.853 57.3409C22.853 58.1847 21.9581 58.875 20.5518 58.875C19.3182 58.875 18.5447 58.3445 18.2763 57.2898L16.8445 57.6477C17.196 59.3161 18.5703 60.2045 20.5774 60.2045C22.8594 60.2045 24.4126 58.9581 24.4126 57.2642C24.4126 55.8963 23.5561 55.0334 21.8047 54.6051L20.3473 54.2472C19.1839 53.9595 18.6598 53.5696 18.6598 52.8153C18.6598 51.9716 19.5547 51.358 20.7564 51.358C22.0732 51.358 22.6165 52.0866 22.8786 52.7642L24.2337 52.3807ZM29.5726 60.2301C31.2857 60.2301 32.1806 59.3097 32.4874 58.6705H32.5641V60H34.0726V53.5312C34.0726 50.4119 31.6948 50.054 30.4419 50.054C28.959 50.054 27.2715 50.5653 26.5044 52.3551L27.9363 52.8665C28.2686 52.1506 29.0549 51.3835 30.4931 51.3835C31.8801 51.3835 32.5641 52.1186 32.5641 53.3778V53.429C32.5641 54.1577 31.8226 54.0938 30.0328 54.3239C28.2111 54.5604 26.2232 54.9631 26.2232 57.2131C26.2232 59.1307 27.7061 60.2301 29.5726 60.2301ZM29.8027 58.875C28.601 58.875 27.7317 58.3381 27.7317 57.2898C27.7317 56.1392 28.78 55.7812 29.9561 55.6278C30.5953 55.5511 32.3084 55.3722 32.5641 55.0653V56.446C32.5641 57.6733 31.5925 58.875 29.8027 58.875ZM37.0305 60H38.4879V58.4915H38.6669C38.9993 59.0284 39.6385 60.2045 41.5305 60.2045C43.9851 60.2045 45.6982 58.2358 45.6982 55.1165C45.6982 52.0227 43.9851 50.054 41.505 50.054C39.5874 50.054 38.9993 51.2301 38.6669 51.7415H38.5391V46.9091H37.0305V60ZM38.5135 55.0909C38.5135 52.892 39.4851 51.4091 41.326 51.4091C43.2436 51.4091 44.1896 53.0199 44.1896 55.0909C44.1896 57.1875 43.218 58.8494 41.326 58.8494C39.5107 58.8494 38.5135 57.3153 38.5135 55.0909ZM49.5142 46.9091H48.0057V60H49.5142V46.9091ZM56.3936 60.2045C58.388 60.2045 59.8453 59.2074 60.3056 57.7244L58.8482 57.3153C58.4647 58.3381 57.5762 58.8494 56.3936 58.8494C54.623 58.8494 53.4022 57.7053 53.3319 55.6023H60.459V54.9631C60.459 51.3068 58.2857 50.054 56.2402 50.054C53.5811 50.054 51.8169 52.1506 51.8169 55.1676C51.8169 58.1847 53.5556 60.2045 56.3936 60.2045ZM53.3319 54.2983C53.4341 52.7706 54.5144 51.4091 56.2402 51.4091C57.8766 51.4091 58.9249 52.6364 58.9249 54.2983H53.3319ZM66.4611 60.2045C68.3532 60.2045 68.9924 59.0284 69.3248 58.4915H69.5037V60H70.9611V46.9091H69.4526V51.7415H69.3248C68.9924 51.2301 68.4043 50.054 66.4867 50.054C64.0066 50.054 62.2935 52.0227 62.2935 55.1165C62.2935 58.2358 64.0066 60.2045 66.4611 60.2045ZM66.6657 58.8494C64.7736 58.8494 63.802 57.1875 63.802 55.0909C63.802 53.0199 64.748 51.4091 66.6657 51.4091C68.5066 51.4091 69.4782 52.892 69.4782 55.0909C69.4782 57.3153 68.481 58.8494 66.6657 58.8494Z" fill="black"/>
<path d="M117.957 54.0938C117.957 52.3807 119.05 51.4091 120.539 51.4091C121.958 51.4091 122.815 52.304 122.815 53.8636V60H124.323V53.7614C124.323 51.2365 122.981 50.054 120.974 50.054C119.427 50.054 118.545 50.6996 118.084 51.7159H117.957V46.9091H116.448V60H117.957V54.0938ZM131.071 60.2045C133.731 60.2045 135.52 58.1847 135.52 55.142C135.52 52.0739 133.731 50.054 131.071 50.054C128.412 50.054 126.623 52.0739 126.623 55.142C126.623 58.1847 128.412 60.2045 131.071 60.2045ZM131.071 58.8494C129.052 58.8494 128.131 57.1108 128.131 55.142C128.131 53.1733 129.052 51.4091 131.071 51.4091C133.091 51.4091 134.012 53.1733 134.012 55.142C134.012 57.1108 133.091 58.8494 131.071 58.8494ZM145.5 50.1818H143.864L141.153 58.0057H141.051L138.341 50.1818H136.704L140.335 60H141.869L145.5 50.1818ZM151.256 60.2045C153.25 60.2045 154.708 59.2074 155.168 57.7244L153.71 57.3153C153.327 58.3381 152.438 58.8494 151.256 58.8494C149.485 58.8494 148.264 57.7053 148.194 55.6023H155.321V54.9631C155.321 51.3068 153.148 50.054 151.103 50.054C148.443 50.054 146.679 52.1506 146.679 55.1676C146.679 58.1847 148.418 60.2045 151.256 60.2045ZM148.194 54.2983C148.296 52.7706 149.377 51.4091 151.103 51.4091C152.739 51.4091 153.787 52.6364 153.787 54.2983H148.194ZM157.616 60H159.125V53.7869C159.125 52.4574 160.173 51.4858 161.605 51.4858C162.007 51.4858 162.423 51.5625 162.525 51.5881V50.054C162.353 50.0412 161.956 50.0284 161.733 50.0284C160.556 50.0284 159.534 50.6932 159.176 51.6648H159.073V50.1818H157.616V60Z" fill="black"/>
<path d="M44.4537 9.27081C46.5154 7.14636 46.5154 3.69676 44.4537 1.59334C42.3919 -0.531113 39.0441 -0.531113 36.9824 1.59334L35.9821 2.64505L34.9819 1.61437C32.9201 -0.531113 29.5723 -0.531113 27.531 1.59334C26.5307 2.62401 26 3.99124 26 5.44259C26 6.89395 26.5512 8.26117 27.531 9.29185L35.9821 18L44.4537 9.27081ZM27.3065 5.44259C27.3065 4.34882 27.7147 3.33918 28.47 2.58195C29.2457 1.78265 30.246 1.383 31.2462 1.383C32.2465 1.383 33.2467 1.78265 34.0225 2.58195L35.9821 4.58019L37.9418 2.56091C39.4728 0.983348 41.9837 0.983348 43.4943 2.56091C44.2291 3.31814 44.6578 4.32778 44.6578 5.42156C44.6578 6.51534 44.2496 7.52498 43.4943 8.28221L35.9821 16.0438L28.47 8.30324C27.7351 7.52498 27.3065 6.51534 27.3065 5.44259Z" fill="black"/>
<path opacity="0.5" d="M147.454 9.27081C149.515 7.14636 149.515 3.69676 147.454 1.59334C145.392 -0.531113 142.044 -0.531113 139.982 1.59334L138.982 2.64505L137.982 1.61437C135.92 -0.531113 132.572 -0.531113 130.531 1.59334C129.531 2.62401 129 3.99124 129 5.44259C129 6.89395 129.551 8.26117 130.531 9.29185L138.982 18L147.454 9.27081ZM130.306 5.44259C130.306 4.34882 130.715 3.33918 131.47 2.58195C132.246 1.78265 133.246 1.383 134.246 1.383C135.246 1.383 136.247 1.78265 137.022 2.58195L138.982 4.58019L140.942 2.56091C142.473 0.983348 144.984 0.983348 146.494 2.56091C147.229 3.31814 147.658 4.32778 147.658 5.42156C147.658 6.51534 147.25 7.52498 146.494 8.28221L138.982 16.0438L131.47 8.30324C130.735 7.52498 130.306 6.51534 130.306 5.44259Z" fill="black"/>
</svg>
